<svg xmlns="http://www.w3.org/2000/svg" viewBox="0 0 64 64" fill="none">
  <path d="M32 8c-4 0-7.5 1.2-10 3.5-1.8-1-4-1.2-5.8 0C14 13 13 15.5 13.5 18c-2 2-3 4.5-2.8 7.2-.8 2-1 4.2 0 6.3-0.5 2.5 0.5 5 2.3 6.8 0.5 2.5 2.2 4.5 4.5 5.5 1.8 2 4.2 3.2 7 3.5 2 1.5 4.8 2.7 7.5 2.7" stroke="#C9452E" stroke-width="3" stroke-linecap="round" stroke-linejoin="round" fill="rgba(201,69,46,0.08)"/>
  <path d="M32 8c4 0 7.5 1.2 10 3.5 1.8-1 4-1.2 5.8 0C50 13 51 15.5 50.5 18c2 2 3 4.5 2.8 7.2.8 2 1 4.2 0 6.3.5 2.5-.5 5-2.3 6.8-.5 2.5-2.2 4.5-4.5 5.5-1.8 2-4.2 3.2-7 3.5-2 1.5-4.8 2.7-7.5 2.7" stroke="#C9452E" stroke-width="3" stroke-linecap="round" stroke-linejoin="round" fill="rgba(201,69,46,0.08)"/>
  <path d="M32 8v42" stroke="#C9452E" stroke-width="2"/>
  <path d="M32 18c-6 0-12 3-14.5 5" stroke="#C9452E" stroke-width="1.5" stroke-linecap="round" opacity="0.5"/>
  <path d="M32 18c6 0 12 3 14.5 5" stroke="#C9452E" stroke-width="1.5" stroke-linecap="round" opacity="0.5"/>
  <path d="M32 30c-8 0-17 2-19 3.5" stroke="#C9452E" stroke-width="1.5" stroke-linecap="round" opacity="0.5"/>
  <path d="M32 30c8 0 17 2 19 3.5" stroke="#C9452E" stroke-width="1.5" stroke-linecap="round" opacity="0.5"/>
  <path d="M32 40c-5 0-10 2.5-13 4" stroke="#C9452E" stroke-width="1.5" stroke-linecap="round" opacity="0.5"/>
  <path d="M32 40c5 0 10 2.5 13 4" stroke="#C9452E" stroke-width="1.5" stroke-linecap="round" opacity="0.5"/>
  <path d="M13.5 18c3 1.5 6 1 8-0.5" stroke="#C9452E" stroke-width="1.5" stroke-linecap="round" opacity="0.4"/>
  <path d="M50.5 18c-3 1.5-6 1-8-0.5" stroke="#C9452E" stroke-width="1.5" stroke-linecap="round" opacity="0.4"/>
</svg>
